PathFileType	4	(X/Y/Z)	/Users/mathieubourgeois/Desktop/Analyse/Traitement/Sujet_02/Data/Transformed_Sujet_02_velo_100.trc
DataRate	CameraRate	NumFrames	NumMarkers	Units	OrigDataRate	OrigDataStartFrame	OrigNumFrames
120.000000	120.000000	5	36	mm	120.000000	235	1882
Frame#	Time	RFHD			RANE			STRN			LANI			LKNE			T10			RHUM			RWRB			C7			LFWT			LTOE			RTOE			LWRA			LBWT			RBWT			RFWT			LKNI			RKNI			RKNE			LANE			RANI			LHEE			RHEE			LHUM			LRAD			RRAD			RWRA			LWRB			LFHD			LBHD			RBHD			RSHO			LSHO			CLAV			LCAR			RCAR			
		X1	Y1	Z1	X2	Y2	Z2	X3	Y3	Z3	X4	Y4	Z4	X5	Y5	Z5	X6	Y6	Z6	X7	Y7	Z7	X8	Y8	Z8	X9	Y9	Z9	X10	Y10	Z10	X11	Y11	Z11	X12	Y12	Z12	X13	Y13	Z13	X14	Y14	Z14	X15	Y15	Z15	X16	Y16	Z16	X17	Y17	Z17	X18	Y18	Z18	X19	Y19	Z19	X20	Y20	Z20	X21	Y21	Z21	X22	Y22	Z22	X23	Y23	Z23	X24	Y24	Z24	X25	Y25	Z25	X26	Y26	Z26	X27	Y27	Z27	X28	Y28	Z28	X29	Y29	Z29	X30	Y30	Z30	X31	Y31	Z31	X32	Y32	Z32	X33	Y33	Z33	X34	Y34	Z34	X35	Y35	Z35	X36	Y36	Z36	

236	1.958333333333333	64.79848480224608	1456.666748046875	145.9878692626952	-177.9892272949219	564.3703002929688	182.6247406005859	-205.8328094482422	1275.405151367188	36.81010055541982	-319.2571411132812	324.9633178710938	-78.55734252929693	-194.3904418945312	737.1416625976562	-140.8362731933595	-359.1187133789062	1515.546630859375	36.79791641235338	-67.79942321777347	1161.606811523438	245.3794708251952	175.0182952880859	1029.201782226562	156.2760925292968	-133.8687286376953	1561.20263671875	44.41931152343739	-390.3504028320312	1213.117065429688	-103.387550354004	-161.6045379638672	189.2270202636719	-145.9765625	35.34288787841795	520.6726684570312	156.3058929443359	217.4230651855469	1044.770874023438	-165.1333770751953	-584.8997192382812	1207.916015625	-53.23612976074233	-592.5496826171875	1213.587280273438	68.37294006347642	-419.6439819335938	1235.507934570312	163.2102813720702	-159.7371978759766	698.8533325195312	-41.70237350463874	-1.091923356056226	973.7487182617188	99.20137023925776	-61.4926452636719	992.5745239257812	209.2619323730468	-352.3308410644531	322.0562438964844	-166.2249755859376	-153.4096832275391	582.77734375	93.74159240722651	-422.3971252441406	314.587890625	-121.8927993774415	-250.4248352050782	524.80224609375	130.2405853271484	-29.82882308959959	1203.2998046875	-183.8717346191407	27.78355979919436	1242.671020507812	-209.9470977783204	-14.88993644714359	1206.612426757812	290.3799743652343	201.4888153076172	1054.253784179688	218.563003540039	178.8367767333984	1020.654479980469	-105.6253051757813	68.49442291259766	1418.863159179688	-7.204959869384845	-0.6429997086524929	1554.036865234375	-28.21590805053721	8.620865821838363	1577.232788085938	129.8340301513671	-116.2194519042969	1502.90771484375	197.0113220214843	-91.76632690429686	1509.118774414062	-94.30185699462902	-101.7650299072266	1417.875	31.13967132568349	289.524169921875	1041.532348632812	-75.92427825927737	293.9739685058594	1016.617248535156	140.5320892333984	
237	1.966666666666667	64.73226928710936	1456.4580078125	146.4163055419921	-168.5772094726563	552.5554809570312	182.1243896484374	-205.6918487548828	1275.4365234375	36.88817977905263	-327.4888000488281	335.1582946777344	-78.49896240234381	-189.5295715332031	742.0653686523438	-141.0786743164063	-358.8399353027344	1515.604370117188	36.89772415161119	-67.80252838134768	1161.69775390625	245.2790985107421	174.9839172363281	1029.267944335938	156.0783081054687	-133.6613922119141	1561.704833984375	44.85344314575185	-390.5478515625	1213.301147460938	-103.2835845947267	-173.7637786865234	195.2842102050781	-146.2773590087891	45.9776916503906	513.87744140625	156.1890106201172	217.4876098632813	1044.79248046875	-165.2852172851563	-584.94384765625	1207.892211914062	-53.26639175415053	-592.3829956054688	1213.480346679688	68.33990478515611	-419.469482421875	1235.281982421875	163.5034027099608	-155.5416107177734	703.1325073242188	-41.7285232543946	-2.295127868652356	966.1587524414062	98.03395080566401	-62.7156791687012	985.2106323242188	207.6289978027343	-360.8788146972656	333.454833984375	-166.0734100341798	-142.5493621826172	570.9952392578125	93.54258728027339	-431.0752258300781	327.4399108886719	-121.6188507080079	-239.8961334228516	510.8914184570312	129.8186798095703	-29.61358070373533	1203.652465820312	-183.9098358154298	28.02808189392092	1242.986450195312	-209.9617919921876	-14.82681179046634	1206.687744140625	290.2658386230468	201.4491577148437	1054.320556640625	218.3249816894531	178.8587951660156	1020.702758789062	-105.7952041625977	68.53858947753906	1418.67626953125	-6.888596534729083	-0.3742165863513912	1554.166625976562	-27.90292739868174	8.921761512756332	1577.131713867188	130.2285919189452	-116.014877319336	1503.07177734375	197.1527557373046	-91.60347747802733	1509.330810546875	-94.02854919433605	-101.5571060180664	1418.185668945312	31.46662139892568	289.522705078125	1041.494018554688	-76.14800262451175	293.9668579101562	1016.632507324219	140.339614868164	
238	1.975	64.20974731445311	1455.934936523438	146.9580993652343	-159.9513854980469	539.63623046875	181.7095642089843	-205.4412078857422	1275.531616210938	36.89624404907216	-334.8418579101562	346.14697265625	-78.42597198486334	-184.1709747314453	747.476318359375	-141.2779998779298	-358.5310668945312	1515.586181640625	36.93824386596666	-67.75141906738284	1162.00732421875	244.9724121093749	174.9614868164062	1029.324951171875	155.8954010009765	-133.5004272460938	1561.873901367188	44.93489456176747	-390.7475280761719	1213.435913085938	-103.059051513672	-185.0883331298828	202.4035797119141	-146.5260467529297	55.69555664062498	505.897216796875	156.1720428466797	217.5745239257813	1044.880615234375	-165.4285125732422	-584.9744873046875	1207.848022460938	-53.24328994750991	-592.1634521484375	1213.310180664062	68.3536224365233	-419.2329406738281	1234.858276367188	163.882858276367	-150.7907104492188	707.9874267578125	-41.65803909301764	-4.033772945404064	957.1134643554688	96.92388153076166	-64.42417907714847	976.5494384765625	206.0895233154296	-368.5079345703125	345.4298095703125	-165.8934173583985	-132.9183502197266	559.45166015625	93.44567871093746	-438.762939453125	341.2589416503906	-121.3560638427735	-230.18017578125	496.0552978515625	129.4871215820312	-29.35031509399412	1204.09375	-183.9718017578126	28.36271667480471	1243.401245117188	-210.0060272216798	-14.74356746673588	1206.961547851562	290.0002441406249	201.4055480957031	1054.397338867188	218.1413269042968	178.8652954101562	1020.791137695312	-105.9812393188477	68.58785247802734	1418.600830078125	-6.687903881073077	0.9590987563133273	1553.993530273438	-27.40302085876474	9.261177062988265	1577.086303710938	130.4918212890624	-115.874137878418	1503.376831054688	197.1338958740234	-91.47384643554686	1509.59619140625	-93.87027740478527	-101.3268585205078	1418.377807617188	31.50575828552237	289.5373840332031	1041.462036132812	-76.354606628418	293.9583740234375	1016.647094726562	140.1811218261718	
239	1.983333333333333	64.19864654541014	1455.821044921875	147.2141876220702	-152.0412902832032	525.6954345703125	181.3854064941406	-204.9544982910156	1276.052734375	36.01655960082997	-341.1333618164062	358.1518859863281	-78.24192047119148	-178.3976440429687	753.4528198242188	-141.4656982421876	-358.2668762207031	1515.504150390625	36.96081542968736	-67.6242599487305	1162.49853515625	244.4423217773437	174.9967498779297	1029.36328125	155.7605743408203	-133.3721771240234	1562.0615234375	44.87096786499013	-390.9110412597656	1213.500854492188	-102.7182464599611	-195.4549407958984	210.5721740722656	-146.7417297363282	64.59630584716795	496.3161315917969	156.0548248291015	217.7356414794922	1044.9775390625	-165.5738525390625	-584.97216796875	1207.789672851562	-53.13611602783217	-591.8743896484375	1213.139282226562	68.48051452636705	-418.9291687011719	1234.306640625	164.3918304443358	-142.9725799560547	713.7706298828125	-41.67498779296881	-9.332582473754893	946.4955444335938	92.82324218749994	-66.5705261230469	966.6632690429688	204.6437377929687	-375.0048217773438	358.2396240234375	-165.6643218994141	-127.3867950439453	544.4307250976562	92.62987518310543	-445.3597717285156	355.9517822265625	-121.0592117309571	-221.2490234375	480.5	129.3181457519531	-28.99893569946287	1204.520385742188	-184.075653076172	28.7395763397217	1243.821166992188	-210.057601928711	-14.58664608001713	1207.386840820312	289.6092834472656	201.4039916992187	1054.452026367188	217.9939880371093	178.865478515625	1020.89794921875	-106.1407775878907	68.67154693603516	1418.544921875	-6.573387622833331	1.397220730781559	1554.083129882812	-27.25102996826181	9.63522052764891	1577.108520507812	130.6684417724609	-115.7401275634766	1503.766479492188	196.9791259765624	-91.38029479980467	1509.886596679688	-93.8477020263673	-101.0213470458984	1418.850341796875	30.94690322875967	289.5611267089844	1041.420532226562	-76.51354980468753	293.9562377929688	1016.661254882812	140.015380859375	
240	1.991666666666667	64.1834259033203	1455.797729492188	147.3868865966796	-144.9885559082032	511.2838134765625	181.5886077880859	-204.5323486328125	1276.234008789062	35.99013900756825	-346.4541625976562	370.789306640625	-77.94371032714851	-172.1675872802734	760.0313720703125	-141.6305236816407	-358.0285949707031	1515.381713867188	37.00502014160143	-67.40143585205081	1163.118286132812	243.7052307128905	175.0447845458984	1029.385620117188	155.6806488037109	-133.2789459228516	1562.197143554688	44.53030776977528	-391.0152587890625	1213.521606445312	-102.3032073974611	-204.7906646728515	219.8005523681641	-146.8502960205078	72.72168731689452	485.2454528808594	155.8569183349609	217.8911437988282	1045.04638671875	-165.683090209961	-584.9570922851562	1207.711791992188	-52.89516067504897	-591.5585327148438	1213.016357421875	68.69976043701158	-418.5684204101562	1233.74169921875	165.0264434814452	-139.1311645507812	719.6284790039062	-41.38279724121099	-8.855975151062024	934.2810668945312	96.11779022216791	-69.28929138183597	955.6285400390625	203.9040222167968	-380.5247802734375	371.9185485839844	-165.3083648681641	-121.8299560546875	530.142822265625	92.29314422607418	-450.8485412597656	371.3759765625	-120.6645584106446	-213.0494079589844	464.3062133789062	129.2683410644531	-28.65291213989256	1204.953979492188	-184.251434326172	29.14513206481936	1244.205200195312	-210.1671905517579	-14.41956233978275	1207.903686523438	289.1415405273437	201.8703460693359	1054.361694335938	217.3751220703125	178.8980102539062	1021.04345703125	-106.269515991211	68.84528350830078	1418.526000976562	-6.518820285797198	1.846641540527347	1554.238159179688	-27.25208854675303	9.968730926513656	1577.188232421875	130.7275238037109	-115.6653594970703	1504.248657226562	196.716339111328	-91.27951812744139	1510.201171875	-93.96353912353527	-100.7703399658203	1419.116577148438	30.64184379577627	289.5897216796875	1041.377075195312	-76.6230163574219	293.9950866699219	1016.655578613281	139.8879699707031	
